<?xml version="1.0" encoding="UTF-8"?> <svg xmlns="http://www.w3.org/2000/svg" width="106" height="100" viewBox="0 0 106 100" fill="none"><path d="M62.8287 14.5434C64.4933 16.1017 66.1727 16.0517 67.5118 14.4115C69.1411 12.4158 69.5143 10.1129 68.5296 7.71238C67.5227 5.25768 65.4324 4.4788 63.0903 4.31074C61.2462 4.17882 59.4642 4.61735 57.6919 5.09504C54.8842 5.85163 54.3793 5.62093 53.0441 3.01684C52.9815 3.04033 52.8817 3.04454 52.8601 3.09092C51.6981 5.51851 51.1077 5.83597 48.6089 5.18179C46.2628 4.56796 43.9258 3.94631 41.4879 4.51496C39.3805 5.0071 37.7843 6.16609 37.194 8.47019C36.5813 10.8622 37.0948 12.9977 38.777 14.7428C40.049 16.0626 41.6138 15.9861 43.067 14.6253C43.0311 14.4175 42.8595 14.4759 42.7376 14.4422C41.5215 14.1036 41.0257 13.5121 41.1955 12.6013C41.4081 11.4634 42.4225 10.6406 43.4117 10.805C44.4831 10.9827 45.2228 12.0314 45.0643 13.1471C44.6523 16.0445 41.1049 17.8245 38.7485 16.2499C36.8845 15.0042 36.0058 13.0754 35.9066 10.7906C35.8736 10.0273 35.6553 9.60687 35.0211 9.26773C31.0178 7.12626 27.1171 7.23109 23.1987 9.77314C23.919 11.1954 24.5977 12.5862 25.0245 14.0958C25.4513 15.6036 25.3664 17.1481 25.3687 18.7956C25.9574 18.6191 26.1853 18.0992 26.5392 17.7667C27.822 16.5632 29.2261 15.8807 30.9431 16.6083C32.1495 17.1198 32.8299 18.3992 32.6367 19.6546C32.4988 20.5497 32.0931 21.1744 31.1648 21.2202C30.4143 21.2569 29.8666 20.9087 29.7367 20.0967C29.5823 19.1323 30.0883 18.5751 30.9055 18.2739C31.0411 18.2239 31.1796 18.1842 31.3323 18.1342C30.4473 17.1939 29.4324 16.93 28.377 17.5715C26.7586 18.5552 25.4445 19.8985 24.9179 21.8665C24.3099 24.1375 23.2938 26.1639 21.8521 27.9499C19.8769 30.3968 17.7485 32.6768 15.2873 34.59C13.9378 35.6393 12.6722 36.7844 11.578 38.4C12.1667 38.2356 12.5753 38.1037 12.9918 38.0085C16.1876 37.279 19.0729 39.9626 18.7731 43.3805C18.6705 44.5515 17.6841 45.3382 16.6036 45.066C15.9511 44.9021 15.5055 44.4895 15.4303 43.7209C15.3562 42.9667 15.6485 42.436 16.2839 42.1402C16.6395 41.9746 17.0316 41.8963 17.4117 41.777C16.4709 39.5855 14.8912 38.9362 12.8192 39.8578C10.4742 40.9011 9.17661 43.5082 9.59375 46.5647C10.1072 50.3296 11.896 53.3354 14.8034 55.7317C13.3366 51.9614 15.8634 49.2007 16.7621 45.6931C18.0858 47.7978 18.7908 49.7374 18.4164 51.9198C17.8368 55.2932 18.0215 58.5719 19.7276 61.5158C20.8178 63.3964 22.0475 65.1831 22.5239 67.3546C22.8818 68.9883 23.6523 70.2587 24.751 71.4532C27.6903 74.6482 29.5772 78.4872 30.5944 82.8105C30.7955 83.6647 31.0679 84.5002 31.2736 85.3531C31.3426 85.6393 31.5227 85.7001 31.729 85.7736C35.2274 87.0199 37.8784 89.5746 40.5237 92.1389C41.9027 93.4756 43.4043 94.6268 45.0244 95.6249C46.3488 96.4406 47.7638 96.5514 49.3149 96.3273C49.1525 97.2598 48.5331 97.2315 48.0521 97.2809C46.905 97.3989 45.7191 97.2634 44.7634 96.6249C41.66 94.5509 38.1821 94.0443 34.6524 93.6329C31.9176 93.3142 29.474 92.0986 27.0965 90.7095C26.0423 90.0939 24.9738 89.5017 23.8865 88.9554C22.7188 88.3693 21.4822 88.0644 20.1072 88.1428C21.211 86.4091 22.9485 85.7983 24.6729 85.1664C26.5426 84.4809 28.4106 84.8634 30.3037 85.2592C30.4245 84.6484 30.1197 84.2237 29.9214 83.8129C28.1565 80.1576 25.644 77.3909 21.7501 76.3331C20.4833 75.9892 19.4074 76.3271 18.3491 77.6053C19.4507 77.48 20.2228 77.6921 20.7101 78.5234C21.0207 79.0534 21.1255 79.6233 20.7591 80.1492C20.4183 80.6383 19.8741 80.7329 19.3658 80.5666C18.4215 80.2582 17.6311 79.7137 17.4265 78.5854C17.2242 77.4722 17.6328 76.6036 18.5058 76C19.8359 75.0802 21.2526 75.1338 22.7092 75.6392C24.9242 76.4078 26.6828 77.8812 28.2642 79.6582C28.3366 79.5697 28.4192 79.4992 28.4089 79.4775C26.4258 75.2657 23.9497 71.4803 19.9778 69.0919C15.9848 66.6908 11.7438 67.0902 8.62099 70.1786C6.94388 71.8369 5.82637 73.7814 6.78261 76.4217C7.40148 76.0163 8.04143 75.8669 8.73781 76.2108C9.39657 76.5361 9.60742 77.112 9.60799 77.8095C9.60856 78.4812 9.21763 78.8438 8.65574 79.0613C7.65677 79.4486 6.44923 79.0504 6.06742 77.9764C5.4212 76.1578 5.02001 74.3031 5.94148 72.3851C7.43452 69.2756 9.9123 67.5552 12.9924 66.5221C10.6337 66.3173 8.48877 65.5963 6.50679 63.7343C9.28031 63.0109 11.5495 61.0525 14.4592 61.8127C16.3609 62.3097 17.7263 63.6464 18.9811 65.1204C19.8536 66.1457 20.6571 67.2372 21.5261 68.3431C21.7484 67.904 21.521 67.6498 21.3933 67.41C18.4221 61.8194 14.5436 57.3136 8.48594 55.4456C7.09547 55.0167 5.68106 54.8715 4.27008 55.3293C2.38725 55.9407 1.1119 57.7154 1.22758 59.5104C1.3085 60.7736 2.0271 61.7489 3.17993 62.0248C2.68358 61.1893 2.48754 60.3604 3.32866 59.7725C3.93271 59.3508 4.64846 59.1803 5.19781 59.917C5.66111 60.5387 5.31293 62.0368 4.64163 62.5049C3.72586 63.144 2.44652 62.9976 1.50511 62.1453C-0.35151 60.4646 -0.519627 57.4226 1.13811 55.5082C3.00555 53.3511 5.38074 53.1379 7.90466 53.5644C9.20053 53.7836 10.4058 54.3462 11.7142 54.7516C10.1898 53.3397 9.58349 51.2603 8.16909 49.7531C6.16089 47.614 5.10606 45.0395 5.5289 41.9047C5.81155 39.8102 5.82638 37.6736 6.13525 35.5845C6.73247 31.5431 8.7264 28.1668 10.9648 24.9405C11.6777 23.9128 12.455 22.9345 13.2181 21.9466C14.1048 20.7991 14.8644 19.5847 15.175 18.1101C15.2377 17.8137 15.2696 17.477 15.6616 17.4438C15.9717 17.4173 16.0891 17.6601 16.2429 17.883C18.3184 20.8858 18.4129 23.7688 16.5432 26.9289C15.485 28.7168 14.09 30.1884 12.6602 31.6335C10.6742 33.6406 8.76573 35.7116 7.47784 38.3314C5.65314 42.0438 5.8674 45.6545 8.21695 48.5724C8.10982 47.258 7.76277 46.0966 7.87105 44.8756C8.29788 40.0512 10.6514 36.4375 14.135 33.4997C17.316 30.8167 20.4451 28.0524 22.5222 24.2736C24.6592 20.3859 25.0718 16.2885 23.405 12.061C23.1844 11.502 22.9639 10.9357 22.5507 10.4948C20.8634 11.7959 20.0297 14.15 20.5859 16.018C20.6736 15.9801 20.7984 15.9692 20.8354 15.903C21.3295 15.0247 22.0265 14.8934 22.7838 15.4168C23.5463 15.9433 23.5292 16.6873 23.0391 17.43C22.5086 18.2348 21.57 18.4498 20.8241 17.9643C19.686 17.2234 19.1344 15.418 19.5213 13.7211C19.7026 12.9266 19.9698 12.164 20.4098 11.4941C20.8434 10.8333 21.3369 10.2171 21.8031 9.58338C19.8006 6.84316 16.3928 6.12571 14.0051 8.05273C14.9197 8.23585 15.7129 8.58464 15.6132 9.6635C15.5323 10.5376 15.1761 11.2628 14.237 11.5393C13.5492 11.7417 12.9998 11.6495 12.5753 11.0604C12.0179 10.2876 11.9439 9.44241 12.357 8.56113C13.4284 6.27691 16.1848 5.20047 18.6489 6.08356C20.2171 6.64558 21.4304 7.74312 22.6015 8.98161C27.031 6.31969 31.493 6.39317 35.9847 8.75631C37.8219 3.27103 42.0999 2.97407 46.1214 3.4632C47.1683 3.5903 48.1992 3.87403 49.2346 4.09992C50.7989 4.44087 51.4502 4.11677 52.0936 2.59456C52.3609 1.96266 52.5934 1.30849 52.5637 0.592262C52.5512 0.297698 52.6219 0.0254229 52.9427 -0.00228662C53.3336 -0.0354175 53.4237 0.253117 53.4225 0.601895C53.4197 1.47655 53.708 2.26265 54.0978 3.01322C54.6363 4.04991 55.3937 4.47098 56.5522 4.17702C58.2869 3.73668 60.0261 3.34634 61.8377 3.30538C65.7396 3.21743 68.6641 4.64989 69.9879 8.76053C74.4665 6.41969 78.8943 6.30884 83.3466 8.96775C84.1336 8.26296 84.8727 7.46963 85.7629 6.86786C87.6349 5.60286 89.5627 5.45105 91.5966 6.39136C92.6793 6.89194 93.3409 7.79732 93.7603 8.88703C94.1923 10.0099 93.5478 11.4086 92.5984 11.6321C91.6097 11.8652 90.6067 11.0664 90.3981 9.88156C90.23 8.92618 90.6489 8.41055 91.8747 8.06479C90.03 6.06006 86.6302 6.68594 84.1103 9.58098C84.8243 10.4056 85.5497 11.258 86.0073 12.3098C86.9032 14.3693 86.751 16.383 85.5799 17.6077C84.7918 18.4317 83.7712 18.4432 83.0805 17.5993C82.5454 16.9457 82.3653 16.2379 83.0321 15.5439C83.6202 14.9319 84.4277 15.012 85.03 15.7216C85.1206 15.8283 85.2033 15.9427 85.3104 16.0801C85.9919 14.353 85.3041 12.2037 83.4771 10.4255C82.4651 11.8068 81.9864 13.3886 81.7504 15.053C81.1202 19.5004 82.4081 23.3676 85.087 26.756C87.0872 29.286 89.3997 31.4781 91.853 33.5129C95.3588 36.4206 97.6998 40.0596 98.1107 44.8853C98.2138 46.0973 97.9523 47.258 97.8263 48.4489C99.5792 46.1412 100.188 43.5787 99.3883 40.6819C98.7506 38.3717 97.5807 36.3772 96.0654 34.6237C94.7599 33.1123 93.3335 31.7178 91.9863 30.2456C90.2716 28.3716 88.7085 26.3874 88.2025 23.7267C87.7619 21.4075 88.6982 19.4979 89.883 17.6908C90.1884 17.2252 90.6301 17.3234 90.7486 17.8968C91.343 20.7714 93.4338 22.6201 94.965 24.8519C97.1869 28.0897 99.2356 31.4347 99.8186 35.4833C100.191 38.0681 100.504 40.6819 100.569 43.2908C100.625 45.5485 99.7815 47.6863 98.2514 49.2405C96.641 50.8765 95.9252 53.168 94.0561 54.7703C94.8038 54.8155 95.2226 54.4806 95.6728 54.2999C97.8041 53.4433 99.9781 53.0174 102.213 53.7222C105.865 54.8739 107.186 59.0779 104.778 61.8188C104.016 62.685 103.098 63.1591 101.932 62.7675C100.896 62.4199 100.307 61.2947 100.645 60.2128C100.877 59.4707 101.44 59.3598 102.067 59.505C102.846 59.6851 103.29 60.196 103.201 61.0706C103.172 61.3652 102.998 61.6435 102.894 61.9194C103.841 61.9079 104.675 60.8405 104.757 59.5002C104.891 57.3154 103.034 55.3233 100.633 55.1022C98.4406 54.8998 96.4233 55.6004 94.5262 56.6371C90.0579 59.0791 86.8678 62.8669 84.5445 67.5239C84.4459 67.7209 84.3889 67.9414 84.4744 68.2889C84.9662 67.6733 85.4739 67.0703 85.9475 66.439C86.8137 65.2849 87.7363 64.1921 88.8321 63.2729C90.4973 61.876 92.3317 61.2537 94.4516 61.8513C96.1008 62.3163 97.583 63.2428 99.4937 63.6837C97.5266 65.5981 95.3844 66.3125 93.0001 66.5053C94.6904 67.139 96.2791 67.8926 97.6428 69.1256C98.721 70.1009 99.5262 71.2659 100.14 72.6026C100.983 74.4404 100.514 76.2343 99.9194 77.986C99.6373 78.8167 98.8971 79.1685 98.0691 79.1926C97.4126 79.2119 96.7994 79.0023 96.5008 78.3475C96.2335 77.7613 96.3093 77.1102 96.7396 76.6217C97.2137 76.0843 97.8343 75.8723 98.5301 76.0855C98.7352 76.1488 98.9216 76.2813 99.1843 76.4174C99.7137 75.0422 99.7017 73.7356 99.0264 72.4484C96.8986 68.3913 92.2263 66.2517 87.2736 68.4275C84.2653 69.7485 82.0753 72.102 80.1959 74.8199C79.1712 76.3018 78.2566 77.8583 77.6571 79.6227C78.4116 78.9264 79.1433 78.1999 79.9257 77.5415C81.1988 76.4698 82.636 75.7398 84.2373 75.3795C85.3657 75.1253 86.4228 75.3103 87.3915 75.9476C89.0761 77.0542 89.031 79.2203 87.3175 80.2673C86.7157 80.6347 86.0996 80.7937 85.4546 80.3781C85.0049 80.0883 84.9588 79.6221 85.0414 79.1529C85.1816 78.3583 85.6797 77.8571 86.3897 77.63C86.6935 77.533 87.0377 77.5782 87.367 77.5583C86.8576 76.4753 85.6677 75.9307 84.3325 76.3024C79.9035 77.5355 77.2474 80.7534 75.4426 85.2887C77.4976 84.9044 79.3559 84.4821 81.2165 85.1248C82.9854 85.7357 84.6813 86.4657 85.9344 88.0614C82.9215 88.0018 80.6301 89.7192 78.2202 91.1239C75.1651 92.9052 71.865 93.7834 68.3985 94.0654C66.4593 94.2232 64.593 94.6695 62.8937 95.7791C61.4513 96.7207 59.8888 97.37 58.1427 97.2959C57.5831 97.2724 56.9939 97.2622 56.6884 96.6574C56.7973 96.3418 56.999 96.3466 57.1682 96.3773C58.9479 96.702 60.4404 95.99 61.9084 95.0286C64.2927 93.4678 66.2348 91.351 68.3381 89.4397C69.9668 87.9596 71.7756 86.826 73.7576 85.9941C74.3286 85.7543 74.6465 85.5044 74.8169 84.7803C76.1401 79.145 78.3501 74.0007 82.5158 70.0117C82.868 69.6744 82.9437 69.2184 83.0486 68.7769C83.6293 66.3264 84.6323 64.1138 85.9401 61.9766C87.3955 59.5978 88.2252 56.9515 87.7448 53.986C87.3271 51.4096 87.2684 48.8315 88.7085 46.4972C88.7866 46.3707 88.8464 46.2304 88.937 46.1159C88.9746 46.0689 89.0703 46.0732 89.3143 46.0069C90.0756 49.1989 92.6822 51.9397 91.1851 55.7257C92.4519 54.7263 93.5415 53.6017 94.3387 52.2493C95.8979 49.6043 96.9368 46.7821 96.1999 43.5745C95.748 41.6071 94.5336 40.3385 92.7448 39.7138C90.7959 39.0337 89.4505 39.7193 88.5666 41.7933C88.7786 41.8493 88.982 41.9011 89.1849 41.9565C90.1029 42.2077 90.7224 42.7197 90.5315 43.8359C90.3753 44.7497 89.7639 45.1178 88.9421 45.0877C87.9141 45.0497 87.3015 44.4166 87.2109 43.3757C86.914 39.9566 89.7992 37.276 92.9956 38.0073C93.4127 38.1031 93.8224 38.2344 94.4328 38.4049C93.4327 36.9887 92.3932 35.92 91.2153 35.0122C88.7489 33.1117 86.5681 30.8926 84.5548 28.4776C82.9118 26.5072 81.7248 24.2977 81.0313 21.7514C80.5013 19.807 79.1684 18.448 77.5033 17.527C76.5163 16.9812 75.5247 17.1981 74.5924 18.0571C74.899 18.1926 75.1457 18.2908 75.3834 18.4095C76.0615 18.7462 76.3732 19.3184 76.2501 20.0979C76.1396 20.7985 75.6882 21.1557 75.0352 21.2196C74.2841 21.293 73.7649 20.9208 73.4732 20.2106C72.9466 18.9299 73.6134 17.2667 74.9423 16.6481C76.347 15.9939 77.6628 16.2885 78.8424 17.2667C79.406 17.7336 79.9161 18.2727 80.6689 18.9859C80.3201 15.5307 81.1321 12.5977 82.815 9.83156C80.5554 8.27079 78.1768 7.50757 75.5372 7.819C73.8977 8.01237 72.3169 8.42018 70.8643 9.31953C70.3287 9.65144 70.0939 9.99662 70.0848 10.6737C70.0603 12.5688 69.3724 14.2006 68.1011 15.5445C67.0029 16.7047 65.6718 17.1433 64.185 16.6981C62.5751 16.2162 61.4342 15.1271 60.9732 13.3693C60.7584 12.5501 60.9578 11.8254 61.5927 11.2911C62.1677 10.8062 62.8019 10.6291 63.5336 10.9526C64.3394 11.3092 64.7651 11.9923 64.7936 12.8302C64.838 14.1103 63.8379 14.3066 62.8287 14.5434ZM84.1952 87.2765C82.4998 85.9706 80.6062 85.6459 78.6601 85.8381C73.6721 86.3314 70.0808 89.5192 66.5072 93.0004C66.9357 92.9504 67.2206 92.9082 67.5061 92.8847C70.8228 92.6148 74.1314 92.2733 77.1004 90.4933C79.3473 89.1463 81.5356 87.6813 84.1952 87.2765ZM39.5407 93.0112C37.8983 91.5468 36.5415 90.0806 34.9094 88.9783C32.5638 87.394 30.1385 85.9658 27.2635 85.823C25.3163 85.726 23.4249 85.9627 21.5347 87.3458C23.8147 87.6476 25.6684 88.4927 27.4219 89.6023C29.7567 91.0794 32.1997 92.2233 34.955 92.4799C36.4024 92.6148 37.8442 92.8124 39.5407 93.0112ZM89.9206 19.2178C88.9341 21.3629 88.9268 23.3068 89.8334 25.2555C90.6341 26.9753 91.8194 28.3897 93.109 29.7101C95.3121 31.966 97.5425 34.1948 99.092 37.0465C99.1051 37.0712 99.2048 37.0435 99.3102 37.0374C99.2743 36.7652 99.2578 36.4983 99.2025 36.2411C98.2725 31.9166 95.9799 28.362 93.472 24.9302C92.1909 23.1761 90.6796 21.5888 89.9206 19.2178ZM16.0492 19.1678C15.6029 20.6828 14.9425 21.7382 14.172 22.7261C11.8943 25.6477 9.7288 28.6499 8.15313 32.0756C7.4237 33.6611 6.87777 35.3038 6.76949 37.1176C8.67512 33.5442 11.7541 31.1034 14.2792 28.1403C15.0382 27.25 15.6987 26.2753 16.1871 25.1886C17.0504 23.2671 17.0305 21.3539 16.0492 19.1678ZM19.0575 66.6992C15.2212 61.6085 13.1166 61.4652 7.94684 63.8452C9.22846 64.6668 10.5209 65.2626 12.0402 65.3451C14.4154 65.4734 16.8823 65.1547 19.0575 66.6992ZM98.0901 63.7849C92.4952 61.4429 89.4886 62.2236 86.7259 66.9697C88.9176 65.3379 91.1566 65.4071 93.3677 65.3806C95.0619 65.3608 96.5903 64.8632 98.0901 63.7849ZM88.7444 47.8044C88.3067 49.1242 87.9625 50.4175 88.2281 51.8482C88.5444 53.5499 88.6561 55.2793 88.5495 57.0148C88.517 57.5449 88.4167 58.0707 88.3404 58.6575C91.5544 55.1504 91.3173 51.5409 88.7444 47.8044ZM17.1536 47.7339C14.2609 52.7921 14.7465 55.0257 17.8271 58.8822C17.3433 57.569 17.463 56.4901 17.4083 55.4233C17.3502 54.2938 17.5388 53.1897 17.7234 52.1024C17.9833 50.5687 17.7878 49.167 17.1536 47.7339Z" fill="black"></path><path d="M52.4811 9.81641C53.3894 10.2942 53.5791 11.2047 54.1244 11.818C59.0275 17.3268 65.0218 21.0729 71.5392 24.0066C74.2292 25.2174 77.0047 26.1689 79.7551 27.1973C81.3551 27.7955 81.4913 28.0254 81.5238 29.7778C81.6434 36.2248 81.6525 42.6693 81.2981 49.1097C80.8918 56.4936 79.7619 63.7229 77.6144 70.794C75.1591 78.879 70.464 85.0209 63.7569 89.5457C60.8623 91.4985 57.9677 93.4351 55.3746 95.8465C54.4013 96.7516 53.8116 97.8517 53.2418 99.0101C53.0635 99.3736 53.0139 99.8291 52.5734 99.9976C52.1261 99.9164 51.99 99.5078 51.8965 99.1672C51.2464 96.8027 49.4401 95.4758 47.7507 94.0965C45.6994 92.4223 43.4965 90.9678 41.3079 89.4934C34.7365 85.066 30.0607 79.0644 27.6345 71.1502C25.5975 64.5053 24.4026 57.7237 23.9576 50.7538C23.5188 43.8885 23.4989 37.0263 23.6032 30.1557C23.6374 27.9092 23.6995 27.7516 25.7547 27.0439C30.0994 25.5484 34.3655 23.8507 38.4242 21.6187C43.0914 19.0527 47.3809 15.9342 50.9649 11.821C51.5011 11.2054 51.9586 10.5115 52.4811 9.81641ZM52.5626 12.776C45.0367 21.4382 35.3108 25.7915 24.7376 28.6278C24.5958 29.8362 24.8784 31.0927 24.8852 32.3601C24.9137 37.9958 25.0596 43.6274 25.3359 49.2571C25.6356 55.3623 26.5228 61.3477 27.9644 67.2777C30.1148 76.1234 34.5359 83.1884 41.8891 88.0996C43.8048 89.379 45.6863 90.7054 47.545 92.0751C49.7148 93.6734 51.6082 95.4788 52.439 98.2464C52.4504 98.2837 52.5609 98.2879 52.7227 98.3373C53.3449 95.8206 54.9586 94.0736 56.8857 92.604C58.8999 91.0683 60.9586 89.6023 63.0634 88.2031C67.991 84.927 72.0195 80.691 74.4708 75.0721C77.432 68.2845 78.8713 61.039 79.5044 53.6231C79.9933 47.8953 80.1266 42.1446 80.2069 36.3951C80.2434 33.7791 80.2485 31.1625 80.4485 28.6404C69.8019 25.7843 60.076 21.4328 52.5626 12.776Z" fill="black"></path><path d="M52.9543 94.6409C51.2355 92.4588 49.2225 90.7432 47.0217 89.2695C44.6131 87.657 42.2569 85.9657 39.9275 84.2253C35.0437 80.5773 32.2948 75.487 30.8777 69.4496C29.5761 63.9049 28.9785 58.2462 28.4361 52.5772C27.9376 47.3645 27.6621 42.1349 27.3411 36.9089C27.2199 34.9358 27.0748 32.9646 26.9291 30.9933C26.8761 30.2746 27.0372 29.925 27.83 29.7674C34.7102 28.4021 41.0686 25.674 46.8589 21.4418C49.0011 19.8759 50.725 17.9077 52.2969 15.754C52.7329 15.1565 53.0949 14.8669 53.6264 15.6516C57.4601 21.306 63.0359 24.3299 68.8484 26.9478C71.8654 28.3064 75.0496 29.1396 78.2658 29.7819C78.9425 29.9171 79.1144 30.2219 79.0728 30.86C78.9055 33.4136 78.7524 35.969 78.5862 38.5226C78.3893 41.5416 78.2043 44.5613 77.979 47.5778C77.3984 55.3478 76.7422 63.1165 74.822 70.6688C73.3098 76.6166 70.175 81.4008 65.2965 84.841C63.2903 86.2559 61.3154 87.7188 59.2671 89.0659C56.9331 90.602 54.8182 92.4315 52.9543 94.6409ZM52.9281 93.4732C53.9935 92.4751 54.9474 91.5201 55.961 90.6433C58.797 88.1896 62.0194 86.3323 64.9817 84.0653C68.5741 81.3172 71.3554 77.9582 72.953 73.5206C74.9233 68.048 75.7645 62.3214 76.4634 56.5543C76.9067 52.8984 77.1839 49.2304 77.4042 45.5514C77.6916 40.752 78.0945 35.9606 78.4815 31.169C78.5316 30.5509 78.3506 30.3601 77.8168 30.2516C76.4628 29.9753 75.1162 29.6523 73.7737 29.3172C67.1928 27.6737 61.3222 24.5432 56.3025 19.7026C55.1244 18.567 54.1182 17.2296 52.9793 15.9231C52.6765 16.2824 52.4085 16.5891 52.1518 16.9066C50.8644 18.4997 49.5298 20.0402 47.9624 21.3357C42.7464 25.6473 36.8615 28.3809 30.4133 29.7935C29.4919 29.9952 28.2916 29.9243 27.7315 30.5225C27.0793 31.2193 27.6985 32.4822 27.7697 33.5003C28.1396 38.762 28.5096 44.0238 28.8636 49.2867C29.2989 55.7495 30.1259 62.1439 31.5185 68.4612C32.9954 75.1598 36.0898 80.5876 41.5574 84.5046C45.4731 87.3085 49.7393 89.6355 52.9281 93.4732Z" fill="black"></path></svg> 